<svg xmlns="http://www.w3.org/2000/svg" width="65" height="56" viewBox="0 0 65 56"><g><g><path fill="#fff" d="M6.132 8.013h14.071a3.474 3.474 0 0 1-.063-.662V2.714c0-1.464.896-2.65 2.001-2.65h20.012c1.105 0 2.001 1.186 2.001 2.65V7.35c0 .229-.022.45-.063.662h14.071c3.316 0 6.004 2.67 6.004 5.962v35.772c0 3.293-2.688 5.962-6.004 5.962H6.132c-3.316 0-6.004-2.669-6.004-5.962V13.975c0-3.292 2.688-5.962 6.004-5.962zm8.005 23.848c0 9.878 8.063 17.886 18.01 17.886 9.947 0 18.01-8.008 18.01-17.886s-8.063-17.886-18.01-17.886c-9.947 0-18.01 8.008-18.01 17.886zm18.01-11.924c6.631 0 12.007 5.339 12.007 11.924 0 6.586-5.376 11.924-12.007 11.924-6.631 0-12.007-5.338-12.007-11.924 0-6.585 5.376-11.924 12.007-11.924zm-4.002 11.924c0 2.195 1.792 3.975 4.002 3.975s4.002-1.78 4.002-3.975c0-2.195-1.791-3.974-4.002-3.974-2.21 0-4.002 1.78-4.002 3.974zM24.142 6.026h16.01V4.04h-16.01z"/></g></g></svg>