<svg xmlns="http://www.w3.org/2000/svg" width="155" height="156" viewBox="0 0 155 156"><defs><mask id="toi9b" width="2" height="2" x="-1" y="-1"><path fill="#fff" d="M1 0h153v153H1z"/><path d="M144.437 47.812c5.281 0 9.562 4.281 9.562 9.562v86.063c0 5.28-4.28 9.562-9.562 9.562H29.687c-5.281 0-9.563-4.281-9.563-9.562v-4.781h114.75v-76.5h-23.906V47.811zM10.562-.001h86.062c5.282 0 9.563 4.282 9.563 9.563v114.75a9.562 9.562 0 0 1-9.563 9.562H10.562c-5.282 0-9.563-4.281-9.563-9.562V9.562a9.563 9.563 0 0 1 9.563-9.563zm4.781 114.75h76.5V14.343h-76.5zm33.469 9.563a4.78 4.78 0 1 0 9.562 0 4.78 4.78 0 0 0-9.562 0zm90.843-23.907a4.781 4.781 0 1 0 9.563 0 4.781 4.781 0 0 0-9.563 0z"/></mask><filter id="toi9a" width="175" height="177" x="-10" y="-11" filterUnits="userSpaceOnUse"><feOffset dy="2" in="SourceGraphic" result="FeOffset1023Out"/><feGaussianBlur in="FeOffset1023Out" result="FeGaussianBlur1024Out" stdDeviation="0.4 0.4"/></filter></defs><g><g><g filter="url(#toi9a)"><path fill="none" d="M144.437 47.812c5.281 0 9.562 4.281 9.562 9.562v86.063c0 5.28-4.28 9.562-9.562 9.562H29.687c-5.281 0-9.563-4.281-9.563-9.562v-4.781h114.75v-76.5h-23.906V47.811zM10.562-.001h86.062c5.282 0 9.563 4.282 9.563 9.563v114.75a9.562 9.562 0 0 1-9.563 9.562H10.562c-5.282 0-9.563-4.281-9.563-9.562V9.562a9.563 9.563 0 0 1 9.563-9.563zm4.781 114.75h76.5V14.343h-76.5zm33.469 9.563a4.78 4.78 0 1 0 9.562 0 4.78 4.78 0 0 0-9.562 0zm90.843-23.907a4.781 4.781 0 1 0 9.563 0 4.781 4.781 0 0 0-9.563 0z" mask="url(&quot;#toi9b&quot;)"/><path fill-opacity=".24" d="M144.437 47.812c5.281 0 9.562 4.281 9.562 9.562v86.063c0 5.28-4.28 9.562-9.562 9.562H29.687c-5.281 0-9.563-4.281-9.563-9.562v-4.781h114.75v-76.5h-23.906V47.811zM10.562-.001h86.062c5.282 0 9.563 4.282 9.563 9.563v114.75a9.562 9.562 0 0 1-9.563 9.562H10.562c-5.282 0-9.563-4.281-9.563-9.562V9.562a9.563 9.563 0 0 1 9.563-9.563zm4.781 114.75h76.5V14.343h-76.5zm33.469 9.563a4.78 4.78 0 1 0 9.562 0 4.78 4.78 0 0 0-9.562 0zm90.843-23.907a4.781 4.781 0 1 0 9.563 0 4.781 4.781 0 0 0-9.563 0z"/></g><path fill="#fff" d="M144.437 47.812c5.281 0 9.562 4.281 9.562 9.562v86.063c0 5.28-4.28 9.562-9.562 9.562H29.687c-5.281 0-9.563-4.281-9.563-9.562v-4.781h114.75v-76.5h-23.906V47.811zM10.562-.001h86.062c5.282 0 9.563 4.282 9.563 9.563v114.75a9.562 9.562 0 0 1-9.563 9.562H10.562c-5.282 0-9.563-4.281-9.563-9.562V9.562a9.563 9.563 0 0 1 9.563-9.563zm4.781 114.75h76.5V14.343h-76.5zm33.469 9.563a4.78 4.78 0 1 0 9.562 0 4.78 4.78 0 0 0-9.562 0zm90.843-23.907a4.781 4.781 0 1 0 9.563 0 4.781 4.781 0 0 0-9.563 0z"/></g></g></svg>