<svg xmlns="http://www.w3.org/2000/svg" width="51" height="62" viewBox="0 0 51 62"><g><g><path fill="#fff" d="M50.78 9.356v43.569l-8.427 8.327H10.368v-8.9H.27V.293h40.536v9.064zM38.28 43.47h-6.313l.025 6.344zM4.433 48.172h25.925l-.026-6.339h6.313V4.473H4.432zm35.933 8.912l-.027-6.315h6.293V13.524h-5.825v30.474l-8.453 8.355H14.517v4.73zm7.901-4.685H41.97l.026 6.327zM10.485 16.597c0-.815.658-1.477 1.47-1.477h17.15c.81 0 1.47.662 1.47 1.477 0 .815-.66 1.477-1.47 1.477h-17.15c-.812 0-1.47-.662-1.47-1.477zm0 8.37c0-.814.658-1.476 1.47-1.476h17.15c.81 0 1.47.662 1.47 1.477 0 .815-.66 1.477-1.47 1.477h-17.15c-.812 0-1.47-.662-1.47-1.477zm20.09 8.367c0 .814-.66 1.477-1.47 1.477h-17.15c-.812 0-1.47-.662-1.47-1.477 0-.815.658-1.478 1.47-1.478h17.15c.81 0 1.47.663 1.47 1.478z"/></g></g></svg>